<svg xmlns="http://www.w3.org/2000/svg" aria-hidden="true" style="position: absolute; width: 0; height: 0; overflow: hidden;">
  <defs>

    <symbol id="close" viewBox="0 0 8 8">
      <path d="M8 0.805714L7.19429 0L4 3.19429L0.805714 0L0 0.805714L3.19429 4L0 7.19429L0.805714 8L4 4.80571L7.19429 8L8 7.19429L4.80571 4L8 0.805714Z"/>
    </symbol>
  
    <symbol id="burger" viewBox="0 0 32 32">
      <path d="M0 6.5C0 5.67157.693236 5 1.54839 5H30.4516C31.3068 5 32 5.67157 32 6.5S31.3068 8 30.4516 8H1.54839C.693236 8 0 7.32843 0 6.5ZM0 16c0-.8284.693236-1.5 1.54839-1.5H30.4516C31.3068 14.5 32 15.1716 32 16s-.6932 1.5-1.5484 1.5H1.54839C.693236 17.5 0 16.8284 0 16Zm0 9.5c0-.8284.693236-1.5 1.54839-1.5H30.4516C31.3068 24 32 24.6716 32 25.5s-.6932 1.5-1.5484 1.5H1.54839C.693236 27 0 26.3284 0 25.5Z"/>
    </symbol>
  </defs>
</svg>