<svg xmlns="http://www.w3.org/2000/svg" aria-hidden="true" style="position:absolute;width:0;height:0;overflow:hidden"><defs><symbol id="icon-send" viewBox="0 0 32 32"><path  d="m32 2.667-32 15 10.227 3.156L26 8.5 14.003 21.988l.009.004-.012-.004v7.345l5.735-5.576L27.002 26l4.999-23.333z" style=""/></symbol><symbol id="icon-phone-black" viewBox="0 0 24 32"><path d="m19.635 18.487-2.451-.28a1.927 1.927 0 0 0-1.583.551l-1.775 1.775c-2.752-1.42-4.94-3.607-6.322-6.278l-.038-.081 1.787-1.785a1.914 1.914 0 0 0 .548-1.591l.001.009-.28-2.432a1.933 1.933 0 0 0-1.918-1.708H5.933c-1.091 0-1.997.907-1.929 1.997.511 8.24 7.101 14.821 15.332 15.333 1.091.067 1.997-.84 1.997-1.931v-1.68c0-.981-.739-1.789-1.69-1.899l-.009-.001z"/></symbol><symbol id="icon-email-black" viewBox="0 0 24 32"><path d="M20 8H4c-1.1 0-1.989.9-1.989 2L2 22c0 1.1.9 2 2 2h16c1.1 0 2-.9 2-2V10c0-1.1-.9-2-2-2zm-.4 4.251-7.069 4.419c-.151.094-.334.15-.531.15s-.38-.056-.535-.153l.004.002L4.4 12.25a.85.85 0 1 1 .902-1.437L11.999 15l6.7-4.191a.849.849 0 1 1 .903 1.437l-.004.002z"/></symbol><symbol id="icon-close-black" viewBox="0 0 32 32"><path d="M32 3.224 28.776 0 16 12.776 3.224 0 0 3.224 12.776 16 0 28.776 3.224 32 16 19.224 28.776 32 32 28.776 19.224 16 32 3.224z"/></symbol><symbol id="icon-person-black" fill="" viewBox="0 0 32 32"><path d="M16 16a5.333 5.333 0 1 0 0-10.666A5.333 5.333 0 1 0 16 16zm0 2.667c-3.561 0-10.667 1.787-10.667 5.333v1.333c0 .732.599 1.333 1.333 1.333h18.667c.732 0 1.333-.601 1.333-1.333V24c0-3.547-7.108-5.333-10.667-5.333z"/></symbol><symbol id="check" viewBox="0 0 16 16">
      <path d="M11.4456 4.25506c.1728-.16541.4027-.25685.6413-.25503.2386.00181.4672.09674.6375.26475.1703.16802.269.39597.2753.63577.0063.23979-.0803.47268-.2415.6495L7.86357 11.7044c-.08417.0911-.18575.1642-.29867.215-.11292.0508-.23487.0781-.35854.0804-.12368.0023-.24655-.0205-.36126-.067-.11472-.0465-.21892-.1158-.30638-.2038L3.29283 8.46564c-.0904-.08468-.1629-.1868-.21318-.30027-.05029-.11346-.07733-.23595-.07951-.36015-.00218-.1242.02055-.24757.06682-.36274.04627-.11518.11515-.21981.20251-.30765.08737-.08783.19143-.15708.306-.2036.11456-.04652.23726-.06937.3608-.06718.12353.00219.24536.02938.35822.07993.11285.05056.21443.12345.29866.21433l2.56874 2.58136 4.26041-5.45748c.0076-.0095.0158-.01855.0245-.02713h-.0012Z"/>
    </symbol></defs></svg>